<svg xmlns="http://www.w3.org/2000/svg" version="1.1" xmlns:xlink="http://www.w3.org/1999/xlink" xmlns:svgjs="http://svgjs.dev/svgjs" viewBox="0 0 800 800"><defs><linearGradient x1="50%" y1="0%" x2="50%" y2="100%" id="wwwhirl-grad"><stop stop-color="hsl(206, 75%, 49%)" stop-opacity="1" offset="45%"></stop><stop stop-color="hsl(331, 90%, 56%)" stop-opacity="1" offset="100%"></stop></linearGradient></defs><g stroke-width="2" stroke="url(#wwwhirl-grad)" fill="none" stroke-linecap="round"><path d="M37.00000251770027 437.66134138638256C50.75000289917 421.780090945785 75.50000358581553 369.2688394889521 103.000004348755 361.43133927151433C130.50000511169446 353.59383905407657 141.5000054168703 400.4538403541255 169.00000617980973 400.04134034268134C196.5000069427492 399.62884033123726 207.50000724792503 348.7263389190363 235.00000801086446 359.4513392165827C262.500008773804 370.1763395141291 273.5000090789798 450.9025917537379 301.0000098419193 451.5213417709041C328.50001060485874 452.1400917880702 339.5000109100345 367.37133943630926 367.000011672974 362.4213392989802C394.50001243591345 357.47133916165103 405.5000127410893 425.2863410430598 433.0000135040287 427.76134111172433C460.5000142669682 430.2363411803889 471.50001457214404 373.4763396056818 499.0000153350834 374.30133962857C526.5000160980228 375.1263396514582 537.5000164031987 437.29009137608284 565.0000171661382 431.72134122158764C592.5000179290777 426.1525910670924 603.5000182342535 343.2400887668299 631.000018997193 347.57133888699286C658.5000197601325 351.9025890071558 669.5000200653083 449.62384171826125 697.0000208282477 452.51134179836987C724.5000215911871 455.3988418784785 749.2500222778326 380.40633979794256 763.0000226593024 361.43133927151433 " transform="rotate(99, 400, 400)"></path><path d="M48.00000244140632 436.5200871143387C61.33333614464971 421.1200866870926 85.3333368104878 370.20008527440615 112.00000421697456 362.6000850635574C138.6666716234613 355.00008485270865 149.33333858605602 400.4400861133621 176.00000599254278 400.0400861022648C202.66667339902952 399.6400860911675 213.33334036162427 350.28008472176055 240.000007768111 360.6800850102903C266.6666751745978 371.0800852988202 277.3333421371925 449.36008747056206 304.00000954367925 449.96008748720806C330.66667695016605 450.560087503854 341.3333439127607 368.36008522335857 368.00001131924745 363.5600850901909C394.66667872573424 358.7600849570233 405.33334568832896 424.52008678141965 432.00001309481576 426.92008684800345C458.66668050130244 429.32008691458725 469.3333474638972 374.2800853875986 496.0000148703839 375.0800854097932C522.6666822768707 375.8800854319878 533.3333492394653 436.16008710435113 560.0000166459522 430.76008695453754C586.666684052439 425.360086804724 597.3333510150337 344.9600845741664 624.0000184215204 349.16008469068805C650.6666858280073 353.3600848072097 661.3333527906019 448.1200874361605 688.0000201970887 450.92008751384157C714.6666876035754 453.72008759152266 738.6666882694134 381.0000855740333 752.0000219726569 362.6000850635574 " transform="rotate(96, 400, 400)"></path><path d="M59.00000236511238 435.3788595451757C71.9166693901294 420.46010913128106 95.16667003516005 371.131357762741 121.00000408519412 363.76885755848133C146.83333813522813 356.40635735422165 157.1666717552418 400.42635857547964 183.0000058052758 400.03885856472914C208.83333985530987 399.65135855397864 219.1666734753235 351.8338572273656 245.00000752535757 361.90885750687886C270.8333415753916 371.98385778639215 281.1666751954052 447.81760989026714 307.0000092454393 448.3988599063929C332.83334329547336 448.98010992251864 343.16667691548696 369.3488577132887 369.00001096552097 364.69885758428256C394.83334501555504 360.04885745527645 405.1666786355687 423.75385922266037 431.0000126856027 426.0788592871635C456.8333467356368 428.40385935166654 467.16668035565044 375.08385787239627 493.0000144056845 375.85885789389727C518.8333484557185 376.63385791539827 529.1666820757321 435.0301095355003 555.0000161257661 429.79885939036836C580.8333501758003 424.56760924523644 591.1666837958139 346.6801070843838 617.000017845848 350.74885719726416C642.8333518958821 354.8176073101445 653.1666855158957 446.6163598569405 679.0000195659296 449.3288599321941C704.8333536159636 452.0413600074477 728.0833542609943 381.59385805300485 741.0000212860114 363.76885755848133 " transform="rotate(93, 400, 400)"></path><path d="M70.00000228881842 434.2376014584346C82.50000263560909 419.80010105789137 105.00000325983231 372.0625997334978 130.00000395341365 364.93759953582713C155.00000464699497 357.8125993381565 165.00000492442751 400.41260052001905 190.00000561800886 400.03760050961534C215.0000063115902 399.66260049921163 225.00000658902275 353.3875992153926 250.00000728260406 363.13759948588927C275.00000797618543 372.887599756386 285.000008253618 446.275101792394 310.0000089471993 446.8376018079996C335.00000964078066 447.40010182360516 345.00000991821315 370.3375996856407 370.0000106117945 365.83759956079604C395.00001130537584 361.3375994359514 405.0000115828084 422.987601146323 430.0000122763897 425.23760120874533C455.000012969971 427.48760127116765 465.0000132474036 375.88759983961575 490.00001394098496 376.6375998604232C515.0000146345662 377.38759988123064 525.0000149119987 433.90010144907126 550.0000156055801 428.83760130862106C575.0000162991615 423.7751011681708 585.000016576594 348.40009907702307 610.0000172701755 352.33759918626214C635.0000179637568 356.2750992955012 645.0000182411893 445.11260176014247 670.0000189347705 447.7376018329685C695.0000196283519 450.3626019057946 717.5000202525752 382.18760001439824 730.0000205993658 364.93759953582713 " transform="rotate(90, 400, 400)"></path><path d="M81.00000221252448 433.09633574229895C93.08333588108879 419.1400853551072 114.83333648450457 372.99383407486005 139.0000038216332 366.1063338837784C163.1666711587618 359.21883369269676 172.83333809361326 400.39883483516394 197.0000054307419 400.036334825107C221.16667276787052 399.67383481505004 230.833339702722 354.94133357402495 255.00000703985063 364.36633383550515C279.16667437697924 373.7913340969853 288.83334131183074 444.7325860651264 313.00000864895935 445.27633608021176C337.16667598608797 445.82008609529714 346.8333429209394 371.3263340285982 371.000010258068 366.97633390791503C395.16667759519663 362.6263337872319 404.8333445300481 422.2213354405911 429.00001186717674 424.39633550093265C453.16667920430535 426.5713355612742 462.8333461391569 376.69133417744075 487.00001347628546 377.4163341975546C511.1666808134141 378.14133421766843 520.8333477482655 432.7700857332477 545.0000150853941 427.87633559747917C569.1666824225229 422.98258546171064 578.8333493573742 350.1200834402678 603.000016694503 353.9263335458656C627.1666840316316 357.73258365146336 636.8333509664831 443.6088360339499 661.0000183036116 446.1463361043484C685.1666856407402 448.68383617474694 706.9166862441559 382.78133434639716 719.0000199127203 366.1063338837784 " transform="rotate(87, 400, 400)"></path><path d="M92.00000213623053 431.95508528495236C103.6666691265685 418.48008491111204 124.66666970917683 373.92508367501136 148.00000368985275 367.27508349051874C171.33333767052864 360.6250833060261 180.666671262799 400.3850844090979 204.00000524347493 400.0350843993877C227.33333922415085 399.68508438967757 236.66667281642125 356.49508319144644 260.00000679709717 365.5950834439101C283.33334077777306 374.6950836963737 292.66667437004344 443.1900855966478 316.0000083507193 443.715085611213C339.3333423313953 444.24008562577825 348.66667592366565 372.3150836303447 372.00000990434154 368.11508351382304C395.3333438850174 363.9150833973014 404.6666774772878 421.4550849936482 428.00001145796375 423.55508505190903C451.3333454386397 425.65508511016986 460.6666790309101 377.49508377405476 484.000013011586 378.1950837934751C507.33334699226185 378.89508381289534 516.6666805845323 431.64008527621326 540.0000145652082 426.91508514512634C563.3333485458841 422.1900850140395 572.6666821381544 351.84008306230163 596.0000161188304 355.51508316425804C619.3333500995063 359.1900832662145 628.6666836917767 442.1050855665464 652.0000176724526 444.55508563451735C675.3333516531285 447.0050857024883 696.3333522357368 383.37508393718514 708.0000192260748 367.27508349051874 " transform="rotate(84, 400, 400)"></path><path d="M103.00000205993659 430.8138348276058C114.25000237204819 417.8200844671169 134.5000029338491 374.8563332751627 157.00000355807228 368.4438330972591C179.50000418229547 362.03133291935546 188.5000044319848 400.3713339830318 211.00000505620795 400.03383397366844C233.50000568043117 399.6963339643051 242.50000593012047 358.0488328088679 265.0000065543437 366.82383305231497C287.5000071785669 375.59883329576206 296.5000074282562 441.6475851281693 319.0000080524794 442.1538351422143C341.5000086767026 442.6600851562593 350.50000892639184 373.3038332320913 373.00000955061506 369.2538331197311C395.5000101748383 365.2038330073709 404.5000104245276 420.6888345467054 427.00001104875076 422.7138346028854C449.500011672974 424.73883465906556 458.5000119226633 378.29883337066883 481.00001254688647 378.9738333893955C503.50001317110963 379.64883340812224 512.5000134207988 430.5100848191788 535.0000140450221 425.95383469277357C557.5000146692455 421.3975845663684 566.5000149189347 353.56008268433544 589.0000155431579 357.10383278265056C611.5000161673811 360.64758288096573 620.5000164170704 440.6013350991429 643.0000170412935 442.9638351646863C665.5000176655168 445.3263352302298 685.7500182273176 383.96883352797306 697.0000185394292 368.4438330972591 " transform="rotate(81, 400, 400)"></path><path d="M114.00000198364263 429.6725843702592C124.83333561752788 417.1600840231217 144.33333615852135 375.787582875314 166.0000034262918 369.6125827039994C187.6666706940623 363.4375825326848 196.3333376011705 400.3575835569657 218.000004868941 400.0325835479492C239.6666721367115 399.7075835389326 248.3333390438197 359.6025824262894 270.0000063115902 368.0525826607199C291.6666735793607 376.5025828951504 300.33334048646896 440.1050846596907 322.0000077542394 440.5925846732156C343.6666750220099 441.0800846867404 352.3333419291181 374.29258283383786 374.0000091968886 370.39258272563916C395.6666764646591 366.49258261744046 404.3333433717673 419.9225840997625 426.0000106395378 421.87258415386185C447.66667790730827 423.8225842079612 456.3333448144165 379.1025829672829 478.00001208218697 379.752582985316C499.66667934995746 380.4025830033491 508.33334625706556 429.3800843621443 530.0000135248362 424.9925842404208C551.6666807926067 420.6050841186973 560.3333476997147 355.2800823063692 582.0000149674854 358.69258240104307C603.6666822352558 362.10508249571694 612.3333491423641 439.0975846317394 634.0000164101345 441.3725846948553C655.666683677905 443.6475847579712 675.1666842188985 384.56258311876104 686.0000178527837 369.6125827039994 " transform="rotate(78, 400, 400)"></path><path d="M125.00000190734869 428.53132628351807C135.41666886300757 416.5000759497321 154.1666693831936 376.7188248460708 175.00000329451137 370.7813246813452C195.83333720582914 364.84382451661963 204.16667077035626 400.34382550150514 225.00000468167406 400.0313254928354C245.83333859299182 399.7188254841656 254.16667215751897 361.1563244143164 275.00000606883674 369.2813246397303C295.8333399801545 377.40632486514426 304.16667354468166 438.5625765618176 325.0000074559994 439.0313265748223C345.8333413673172 439.5000765878269 354.16667493184434 375.28132480618984 375.00000884316205 371.53132470215263C395.8333427544799 367.7813245981154 404.166676319007 419.1563260234251 425.0000102303248 421.0313260754437C445.83334414164256 422.9063261274623 454.1666777061697 379.9063249345024 475.0000116174875 380.53132495184195C495.83334552880524 381.15632496918147 504.1666790933323 428.2500762757153 525.0000130046501 424.03132615867344C545.8333469159679 419.8125760416316 554.166680480495 357.0000742990085 575.0000143918128 360.28132439004105C595.8333483031306 363.56257448107357 604.1666818676579 437.59382653494134 625.0000157789755 439.7813265956297C645.8333496902933 441.9688266563181 664.5833502104794 385.1563250801545 675.0000171661382 370.7813246813452 " transform="rotate(75, 400, 400)"></path><path d="M136.00000183105476 427.39007964086875C146.00000210848728 415.8400793204342 164.00000260786584 377.6500782609194 184.00000316273093 371.9500781027828C204.00000371759597 366.25007794464625 212.000003939542 400.33007889013635 232.00000449440708 400.0300788818134C252.00000504927215 399.73007887349036 260.0000052712182 362.7100778464351 280.0000058260833 370.5100780628325C300.0000063809483 378.3100782792299 308.00000660289436 437.02007990803634 328.00000715775946 437.4700799205208C348.00000771262455 437.92007993300524 356.00000793457053 376.27007822263363 376.0000084894356 372.67007812275796C396.00000904430067 369.0700780228822 404.0000092662467 418.3900793911795 424.0000098211118 420.19007944111735C444.0000103759769 421.9900794910552 452.0000105979229 380.7100783458137 472.000011152788 381.31007836245965C492.000011707653 381.9100783791056 500.00001192959905 427.1200796333781 520.0000124844642 423.07007952101793C540.0000130393292 419.02007940865775 548.0000132612753 358.72007773573955 568.0000138161404 361.8700778231308C588.0000143710055 365.02007791052205 596.0000145929514 436.09007988223505 616.0000151478165 438.19007994049593C636.0000157026815 440.29007999875677 654.00001620206 385.7500784856397 664.0000164794926 371.9500781027828 " transform="rotate(72, 400, 400)"></path><path d="M146.9999864959717 426.24882918352216C156.5833200951779 415.18007887643904 173.83332057374906 378.58132786107063 192.9999877721614 373.11882770952315C212.16665497057375 367.6563275579756 219.8333218499387 400.3163284640703 238.99998904835104 400.02882845609406C258.1666562467634 399.7413284481179 265.8333231261284 364.2638274638566 284.9999903245407 371.73882767123746C304.1666575229531 379.21382787861825 311.83332440231806 435.47757943955776 330.9999916007304 435.908829451522C350.1666587991428 436.3400794634863 357.83332567850766 377.2588278243802 376.99999287692003 373.80882772866596C396.1666600753324 370.3588276329518 403.8333269546974 417.6238289442366 422.99999415310975 419.34882899209373C442.1666613515221 421.07382903995085 449.83332823088705 381.5138279424277 468.9999954292994 382.08882795838014C488.16666262771173 382.6638279743325 495.83332950707666 425.9900791763436 514.9999967054891 422.1088290686651C534.1666639039015 418.22757896098665 541.8333307832664 360.44007735777336 560.9999979816788 363.4588274415233C580.1666651800912 366.47757752527326 587.8333320594561 434.58632941483154 606.9999992578685 436.5988294706649C626.1666664562807 438.61132952649814 643.4166669348518 386.34382807642766 653.000000534058 373.11882770952315 " transform="rotate(69, 400, 400)"></path><path d="M157.99998641967778 425.107555837992C167.1666533406576 414.5200555442603 183.6666537984213 379.51255457303836 201.99998764038094 374.2875544280799C220.33332148234058 369.06255428312136 227.66665501912445 400.3025551498206 245.9999888610841 400.0275551421912C264.33332270304373 399.7525551345618 271.6666562398276 365.8175541930945 289.99999008178725 372.96755439145875C308.3333239237469 380.11755458982304 315.6666574605308 433.9350560828956 333.99999130249046 434.34755609433967C352.3333251444501 434.76005610578375 359.6666586812339 378.24755453794313 377.99999252319355 374.9475544463904C396.3333263651532 371.64755435483767 403.6666599019371 416.8575556091102 421.99999374389677 418.5075556548866C440.3333275858564 420.1575557006629 447.6666611226403 382.3175546508582 465.9999949645999 382.867554666117C484.3333288065595 383.41755468137575 491.6666623433434 424.8600558311256 509.9999961853031 421.14755572812874C528.3333300272627 417.4350556251319 535.6666635640465 362.1600540916236 553.9999974060063 365.0475541717322C572.3333312479659 367.9350542518408 579.6666647847499 433.08255605924444 597.9999986267094 435.0075561126502C616.3333324686689 436.932556166056 632.8333329264326 386.93755477903204 641.9999998474125 374.2875544280799 " transform="rotate(66, 400, 400)"></path><path d="M168.99998634338385 423.96631682473725C177.7499865861373 413.860066544357 193.49998702309355 380.4438156172815 210.9999875086005 375.456315478912C228.4999879941074 370.4688153405425 235.49998818831023 400.28881616784633 252.99998867381714 400.02631616056374C270.49998915932406 399.76381615328114 277.49998935352687 367.3713152546078 294.9999898390338 374.1963154439555C312.4999903245407 381.0213156333032 319.4999905187435 432.3925670585088 336.99999100425043 432.7863170694327C354.49999148975735 433.1800670803566 361.49999168396016 379.2363155837815 378.9999921694671 376.0863154963902C396.49999265497405 372.936315408999 403.4999928491768 416.0913166062591 420.9999933346837 417.66631664995475C438.4999938201907 419.24131669365033 445.4999940143935 383.12131569156406 462.9999944999004 383.64631570612926C480.4999949854073 384.17131572069445 487.4999951796101 423.7300668181829 504.99999566511707 420.1863167198677C522.4999961506239 416.6425666215526 529.4999963448267 363.8800651577492 546.9999968303338 366.6363152342165C564.4999973158407 369.39256531068384 571.4999975100434 431.57881703593273 588.9999979955503 433.41631708691096C606.4999984810572 435.2538171378892 622.2499989180135 387.53131581391176 630.999999160767 375.456315478912 " transform="rotate(63, 400, 400)"></path><path d="M179.9999862670899 422.82506636739066C188.33331983161702 413.2000661003618 203.3333202477658 381.3750652174328 219.99998737682003 376.62506508565235C236.66665450587425 371.87506495387186 243.33332135749595 400.2750657417803 259.9999884865502 400.0250657348445C276.6666556156044 399.77506572790867 283.33332246722614 368.9250648720293 299.99998959628033 375.4250650523604C316.6666567253345 381.92506523269157 323.3333235769563 430.8500665900302 339.9999907060105 431.225066600434C356.6666578350647 431.6000666108377 363.3333246866864 380.225065185528 379.9999918157406 377.2250651022983C396.6666589447948 374.22506501906855 403.33332579641655 415.32506615931624 419.9999929254708 416.82506620093113C436.666660054525 418.32506624254603 443.3333269061467 383.9250652881781 459.9999940352009 384.4250653020497C476.6666611642551 384.92506531592136 483.33332801587676 422.60006636114844 499.99999514493106 419.22506626751493C516.6666622739854 415.85006617388143 523.333329125607 365.60006477978294 539.9999962546613 368.225064852609C556.6666633837156 370.85006492543505 563.3333302353371 430.0750665685292 579.9999973643913 431.8250666170799C596.6666644934455 433.57506666563063 611.6666649095944 388.12506540469974 619.9999984741214 376.62506508565235 " transform="rotate(60, 400, 400)"></path><path d="M190.99998619079594 421.68380828064954C198.9166530770967 412.54005802697213 213.16665347243807 382.3063071881896 228.99998724503956 377.79380706299816C244.83332101764108 373.2813069378067 251.1666545266817 400.2613076863197 266.99998829928325 400.0238076797307C282.8333220718847 399.7863076731416 289.16665558092535 370.47880686005624 304.99998935352687 376.65380703137083C320.83332312612833 382.8288072026854 327.166656635169 429.30755849215717 342.9999904077705 429.6638085020407C358.833324180372 430.0200585119242 365.1666576894126 381.21380715788007 380.9999914620141 378.36380707881176C396.8333252346156 375.5138069997435 403.1666587436563 414.5588080829788 418.99999251625775 415.983808122513C434.83332628885927 417.40880816204714 441.1666597978999 384.7288072553976 456.99999357050143 385.20380726857564C472.8333273431029 385.6788072817537 479.1666608521435 421.4700582747194 494.99999462474506 418.26380818576763C510.8333283973466 415.0575580968158 517.1666619063872 367.3200567724222 532.9999956789886 369.81380684160695C548.8333294515903 372.30755691079173 555.1666629606309 428.5713084717312 570.9999967332324 430.23380851785436C586.8333305058338 431.8963085639775 601.0833309011753 388.7188073660932 608.9999977874759 377.79380706299816 " transform="rotate(57, 400, 400)"></path><path d="M201.999986114502 420.5425540086057C209.49998632257638 411.88005376827977 222.99998669711033 383.23755297364363 237.99998711325912 378.9625528550412C252.99998752940792 374.6875527364388 258.99998769586745 400.2475534455564 273.99998811201624 400.0225534393141C288.9999885281651 399.79755343307187 294.99998869462456 372.03255266278046 309.9999891107734 377.8825528250785C324.9999895269222 383.7325529873765 330.99998969338174 427.7650542089813 345.99999010953053 428.10255421834466C360.9999905256793 428.44005422770806 366.9999906921388 382.2025529449293 381.99999110828765 379.50255287002255C396.99999152443644 376.8025527951158 402.99999169089597 413.79255382133874 417.99999210704476 415.1425538587921C432.99999252319355 416.4925538962455 438.99999268965314 385.53255303731436 453.99999310580193 385.98255304979887C468.9999935219507 386.4325530622833 474.9999936884102 420.3400540029877 489.99999410455905 417.30255391871754C504.9999945207079 414.26505383444743 510.9999946871674 369.04005257975876 525.9999951033162 371.4025526453022C540.9999955194651 373.7650527108456 546.9999956859245 427.0675541896304 561.9999961020733 428.64255423332605C576.9999965182221 430.2175542770217 590.499996892756 389.3125531421839 597.9999971008303 378.9625528550412 " transform="rotate(54, 400, 400)"></path><path d="M212.99998603820805 419.4013035512591C220.08331956805608 411.2200533242846 232.8333199217826 384.1688025737949 246.99998698147868 380.13130246178156C261.16665404117475 376.09380234976817 266.8333208650532 400.23380301949027 280.9999879247493 400.02130301359483C295.16665498444536 399.8088030076994 300.83332180832383 373.58630228020195 314.99998886801995 379.1113024334834C329.166655927716 384.6363025867649 334.83332275159444 426.22255374050275 348.99998981129056 426.54130374934596C363.1666568709866 426.8600537581891 368.83332369486504 383.1913025466759 382.99999075456117 380.6413024759306C397.16665781425723 378.0913024051853 402.8333246381357 413.02630337439587 416.9999916978318 414.3013034097685C431.1666587575279 415.57630344514115 436.8333255814063 386.3363026339284 450.99999264110244 386.7613026457193C465.1666597007985 387.18630265751017 470.8333265246769 419.2100535459532 484.99999358437304 416.34130346636476C499.16666064406917 413.47255338677627 504.8333274679476 370.7600522017926 518.9999945276437 372.9913022636947C533.1666615873398 375.22255232559684 538.8333284112182 425.5638037222269 552.9999954709143 427.05130376349496C567.1666625306103 428.53880380476306 579.9166628843368 389.9063027329718 586.9999964141849 380.13130246178156 " transform="rotate(51, 400, 400)"></path><path d="M223.9999859619141 418.26004927921525C230.6666528135358 410.5600490655922 242.66665314645485 385.10004835924894 255.99998684969822 381.30004825382457C269.3333205529416 377.50004814840025 274.66665403423895 400.22004877872695 287.99998773748234 400.0200487731783C301.3333214407257 399.82004876762966 306.6666549220231 375.14004808292617 319.99998862526644 380.34004822719106C333.33332232850984 385.540048371456 338.6666558098072 424.68004945732696 351.99998951305054 424.9800494656499C365.33332321629393 425.2800494739729 370.6666566975913 384.18004833372515 383.9999904008347 381.78004826714135C397.3333241040781 379.38004820055755 402.66665758537545 412.2600491127557 415.99999128861884 413.46004914604765C429.3333249918621 414.6600491793395 434.66665847315954 387.1400484158452 447.9999921764029 387.5400484269425C461.3333258796463 387.9400484380398 466.6666593609436 418.0800492742215 479.99999306418704 415.38004919931467C493.33332676743044 412.6800491244079 498.6666602487278 372.4800480091291 511.99999395197113 374.58004806738995C525.3333276552146 376.6800481256508 530.666661136512 424.06004944012614 543.9999948397553 425.46004947896665C557.3333285429986 426.8600495178072 569.3333288759177 390.50004850906254 575.9999957275394 381.30004825382457 " transform="rotate(48, 400, 400)"></path><path d="M234.99998588562016 417.1187950071714C241.2499860590155 409.9000448068998 252.49998637112708 386.031294144703 264.99998671791775 382.46879404586764C277.4999870647084 378.90629394703234 282.49998720342467 400.20629453796363 294.99998755021534 400.0187945327618C307.499987897006 399.8312945275599 312.4999880357223 376.6937938856504 324.999988382513 381.56879402089874C337.49998872930365 386.4437941561471 342.49998886801995 423.1375451741511 354.9999892148106 423.4187951819539C367.4999895616013 423.7000451897567 372.49998970031754 385.16879412077446 384.9999900471082 382.91879405835215C397.4999903938989 380.66879399592983 402.49999053261513 411.4937948511156 414.9999908794058 412.61879488232677C427.49999122619647 413.7437949135379 432.4999913649127 387.943794197762 444.9999917117034 388.3187942081657C457.49999205849406 388.6937942185694 462.4999921972103 416.95004500248973 474.999992544001 414.41879493226463C487.4999928907917 411.8875448620395 492.49999302950795 374.2000438164656 504.9999933762987 376.1687938710852C517.4999937230893 378.1375439257047 522.4999938618056 422.55629515802536 534.9999942085963 423.86879519443835C547.4999945553868 425.1812952308514 558.7499948674986 391.09379428515325 564.9999950408939 382.46879404586764 " transform="rotate(45, 400, 400)"></path><path d="M245.9999858093262 415.9775445498248C251.83331930449518 409.24004436290465 262.33331959579937 386.9625437448543 273.9999865861373 383.637543652608C285.66665357647526 380.3125435603617 290.33332037261044 400.1925441118976 301.9999873629484 400.0175441070425C313.6666543532864 399.84254410218745 318.3333211494216 378.2475435030719 329.9999881397595 382.7975436293037C341.66665513009747 387.34754375553547 346.33332192623266 421.59504470567254 357.9999889165706 421.85754471295513C369.66665590690855 422.12004472023773 374.3333227030438 386.157543722521 385.99998969338174 384.05754366426015C397.6666566837197 381.9575436059993 402.3333234798548 410.7275444041727 413.9999904701928 411.77754443330315C425.6666574605308 412.8275444624336 430.33332425666595 388.74754379437604 441.99999124700395 389.0975438040862C453.66665823734184 389.4475438137963 458.3333250334771 415.82004454545523 469.999992023815 413.4575444799118C481.66665901415297 411.0950444143684 486.33332581028816 375.9200434384994 497.99999280062616 377.75754348947765C509.6666597909641 379.5950435404559 514.3333265870992 421.05254469062186 525.9999935774372 422.2775447246073C537.6666605677751 423.5025447585928 548.1666608590793 391.6875438759412 553.9999943542483 383.637543652608 " transform="rotate(42, 400, 400)"></path><path d="M256.99998573303225 414.83629599982686C262.41665254997486 408.58004582625813 272.1666528204716 387.89379525235427 282.9999864543569 384.80629516669694C293.8333200882421 381.7187950810397 298.1666535417962 400.17879559318015 308.99998717568144 400.0162955886718C319.83332080956666 399.85379558416355 324.1666542631208 379.801295027842 334.999987897006 384.02629514505725C345.8333215308913 388.2512952622725 350.1666549844454 420.0525461445426 360.99998861833063 420.29629615130506C371.8333222522159 420.54004615806747 376.16665570577 387.1462952316162 386.99998933965526 385.19629517751684C397.8333229735405 383.2462951234175 402.1666564270946 409.9612958645785 412.9999900609798 410.93629589162816C423.83332369486504 411.91129591867787 428.1666571484192 389.5512952983387 438.9999907823044 389.87629530735524C449.83332441618967 390.20129531637184 454.16665786974374 414.6900459957694 464.999991503629 412.49629593490766C475.8333251375143 410.3025458740459 480.1666585910683 377.64004496788186 490.99999222495364 379.3462950152188C501.83332585883886 381.05254506255574 506.166659312393 419.548796130567 516.9999929462782 420.6862961621249C527.8333265801634 421.8237961936829 537.5833268506601 392.2812953740778 542.9999936676028 384.80629516669694 " transform="rotate(39, 400, 400)"></path><path d="M267.9999856567383 413.695041727783C272.99998579545456 407.9200415675657 281.9999860451438 388.8250410378083 291.99998632257643 385.97504095874C301.9999866000089 383.12504087967176 305.99998671098194 400.1650413524168 315.9999869884145 400.0150413482553C325.99998726584704 399.8650413440938 329.99998737682006 381.3550408305662 339.99998765425255 385.25504093876486C349.9999879316851 389.15504104696356 353.9999880426581 418.5100418613668 363.99998832009067 418.735041867609C373.9999885975232 418.96004187385125 377.9999887084962 388.13504101866545 387.9999889859287 386.3350409687276C397.9999892633613 384.5350409187897 401.9999893743343 409.1950416029384 411.99998965176684 410.09504162790734C421.9999899291994 410.99504165287624 425.9999900401724 390.3550410802555 435.9999903176049 390.65504108857846C445.99999059503745 390.9550410969014 449.99999070601046 413.56004172403766 459.999990983443 411.53504166785757C469.99999126087556 409.5100416116775 473.9999913718486 379.3600407752184 483.9999916492811 380.93504081891405C493.9999919267137 382.5100408626097 497.99999203768664 418.04504184846616 507.9999923151192 419.0950418775966C517.9999925925517 420.145041906727 526.999992842241 392.8750411501685 531.9999929809572 385.97504095874 " transform="rotate(36, 400, 400)"></path><path d="M279.0000008392334 412.5537836410419C283.58333429972333 407.26003349417607 291.8333345286052 389.7562830085651 301.000001449585 387.1437829360858C310.1666683705648 384.5312828636066 313.8333351389567 400.1512832969562 323.0000020599366 400.0137832931415C332.16666898091637 399.8762832893268 335.83333574930833 382.9087828185932 345.00000267028815 386.4837829177753C354.166669591268 390.0587830169574 357.83333635965994 416.9675337634937 367.00000328063976 417.17378376921573C376.1666702016196 417.3800337749378 379.8333369700115 389.1237829910175 389.0000038909913 387.4737829452411C398.16667081197113 385.82378289946473 401.8333375803631 408.42878352660097 411.0000045013429 409.2537835494892C420.16667142232274 410.07878357237735 423.8333381907147 391.158783047475 433.00000511169446 391.4337830551044C442.1666720326743 391.7087830627338 445.83333880106625 412.4300336376087 455.00000572204607 410.57378358611027C464.1666726430259 408.71753353461185 467.8333394114178 381.0800327678577 477.0000063323977 382.52378280791197C486.1666732533775 383.9675328479663 489.83334002176946 416.5412837516681 499.0000069427492 417.50378377837103C508.166673863729 418.4662838050739 516.4166740926108 393.4687831115619 521.0000075531008 387.1437829360858 " transform="rotate(33, 400, 400)"></path><path d="M290.00000076293946 411.41253032267235C294.16666754520304 406.60003018915796 301.66666775327747 390.6875297476934 310.00000131780456 388.3125296818032C318.33333488233166 385.937529615913 321.6666683081425 400.1375300098672 330.0000018726696 400.0125300063993C338.33333543719675 399.8875300029314 341.6666688630076 384.46252957499166 350.0000024275347 387.71252966515726C358.3333359920618 390.96252975532286 361.66666941787264 415.42503043399216 370.0000029823998 415.612530439194C378.3333365469269 415.80003044439593 381.66666997273774 390.11252973174106 390.00000353726483 388.61252969012617C398.3333371017919 387.1125296485113 401.66667052760283 407.6625302186352 410.0000040921299 408.4125302394426C418.333337656657 409.16253026025004 421.6666710824679 391.9625297830661 430.00000464699497 392.2125297900019C438.3333382115221 392.4625297969377 441.6666716373329 411.30003031955124 450.00000520186006 409.61253027273455C458.3333387663872 407.9250302259178 461.666672192198 382.80002952886855 470.00000575672516 384.11252956528153C478.3333393212523 385.4250296016946 481.6666727470631 415.03753042324166 490.0000063115902 415.91253044751704C498.3333398761173 416.78753047179237 505.8333400841917 394.0625298413269 510.00000686645524 388.3125296818032 " transform="rotate(30, 400, 400)"></path><path d="M301.00000068664554 410.2712827263487C304.75000079068275 405.94003260618575 311.5000009779497 391.6187822088677 319.00000118602406 389.4812821495665C326.5000013940985 387.3437820902653 329.5000014773283 400.1237824448241 337.00000168540265 400.011282441703C344.5000018934771 399.89878243858186 347.5000019767068 386.0162820534361 355.00000218478124 388.94128213458515C362.50000239285566 391.86628221573415 365.5000024760854 413.8825328265366 373.00000268415977 414.05128283121826C380.5000028922342 414.22003283589993 383.50000297546393 391.1012821945106 391.00000318353835 389.7512821570572C398.5000033916127 388.40128211960376 401.5000034748425 406.89628263271527 409.00000368291694 407.57128265144195C416.5000038909913 408.2462826701686 419.5000039742211 392.7662822407031 427.00000418229547 392.99128224694533C434.5000043903699 393.21628225318756 437.50000447359963 410.17003272353975 445.00000468167406 408.65128268140467C452.5000048897485 407.1325326392696 455.5000049729782 384.5200320119253 463.00000518105264 385.701282044697C470.50000538912707 386.88253207746874 473.5000054723568 413.5337828168611 481.0000056804312 414.3212828387089C488.5000058885056 415.10878286055674 495.25000607577255 394.65628229313785 499.0000061798097 389.4812821495665 " transform="rotate(27, 400, 400)"></path><path d="M312.00000061035155 409.1300275006306C315.33333403616246 405.28002739381907 321.3333342026219 392.5500270406474 328.0000010542436 390.65002698793523C334.6666679058653 388.75002693522305 337.333334646514 400.11002725038645 344.0000014981357 400.01002724761213C350.6666683497574 399.9100272448378 353.3333350904061 387.570026902486 360.0000019420278 390.1700269746185C366.6666687936495 392.77002704675095 369.33333553429816 412.34002758968643 376.0000023859198 412.4900275938479C382.6666692375415 412.6400275980094 385.3333359781902 392.0900270278855 392.0000028298119 390.89002699459365C398.6666696814336 389.6900269613017 401.33333642208225 406.1300274174008 408.00000327370395 406.73002743404675C414.6666701253256 407.33002745069274 417.3333368659743 393.57002706894554 424.000003717596 393.7700270744942C430.6666705692177 393.9700270800428 433.33333730986635 409.04002749813367 440.00000416148805 407.6900274606803C446.66667101310975 406.3400274232269 449.3333377537584 386.2400268655875 456.0000046053801 387.2900268947179C462.6666714570018 388.3400269238483 465.3333381976505 412.030027581086 472.0000050492722 412.7300276005063C478.66667190089385 413.4300276199266 484.6666720673534 395.2500271155542 488.0000054931642 390.65002698793523 " transform="rotate(24, 400, 400)"></path><path d="M323.0000005340576 407.98876846021517C325.9166672816421 404.62001836675506 331.1666674272942 393.4812680577299 337.0000009224632 391.8187680116067C342.83333441763216 390.15626796548355 345.1666678156997 400.0962682412515 351.0000013108687 400.00876823882396C356.8333348060377 399.92126823639643 359.16666820410535 389.12376793683865 365.0000016992743 391.39876799995454C370.8333351944433 393.6737680630705 373.16666859251086 410.797518538139 379.00000208767983 410.9287685417803C384.8333355828488 411.0600185454216 387.1666689809164 393.07876804656325 393.0000024760854 392.0287680174328C398.83333597125437 390.9787679883024 401.16666936932194 405.3637683873891 407.00000286449097 405.88876840195434C412.83333635965994 406.41376841651953 415.1666697577275 394.37376808249076 421.0000032528965 394.5487680873458C426.83333674806545 394.7237680922009 429.1666701461331 407.9100184580304 435.00000364130204 406.72876842525864C440.833337136471 405.54751839248695 443.16667053453864 387.96001790455244 449.0000040297076 388.8787679300416C454.8333375248766 389.7975179555307 457.16667092294415 410.52626853061366 463.0000044181131 411.1387685476064C468.8333379132821 411.7512685645991 474.0833380589342 395.8437681232733 477.0000048065187 391.8187680116067 " transform="rotate(21, 400, 400)"></path><path d="M334.0000004577637 406.8475199102172C336.5000005271218 403.96001983010854 341.00000065196645 394.41251956522984 346.00000079068275 392.9875195256957C351.000000929399 391.5625194861616 353.0000009848855 400.0825197225341 358.0000011236018 400.00751972045333C363.00000126231805 399.9325197183726 365.00000131780456 390.67751946160877 370.0000014565208 392.6275195157081C375.0000015952371 394.57751956980746 377.00000165072356 409.25501997700906 382.00000178943986 409.36751998013017C387.00000192815617 409.4800199832513 389.0000019836426 394.0675195556584 394.00000212235886 393.1675195306895C399.00000226107517 392.26751950572054 401.0000023165617 404.5975198477949 406.0000024552779 405.04751986027935C411.0000025939942 405.4975198727638 413.00000264948073 395.1775195864534 418.000002788197 395.3275195906149C423.0000029269132 395.4775195947764 425.0000029823998 406.7800199083445 430.00000312111604 405.7675198802545C435.0000032598323 404.7550198521644 437.00000331531885 389.6800194339349 442.0000034540351 390.4675194557827C447.00000359275134 391.2550194776305 449.00000364823785 409.0225199705588 454.00000378695415 409.547519985124C459.0000039256704 410.0725199996892 463.50000405051503 396.43751962140993 466.00000411987315 392.9875195256957 " transform="rotate(18, 400, 400)"></path><path d="M344.99999656677244 405.70626563817336C347.08332995790425 403.3000155714161 350.83333006194147 395.3437653506839 354.99999684420504 394.15626531773876C359.16666362646856 392.9687652847937 360.833330339374 400.06876548177075 364.99999712163753 400.0062654800368C369.1666639039011 399.94376547830285 370.8333306168065 392.231265264333 374.9999973990701 393.8562653094158C379.16666418133366 395.4812653544986 380.83333089423905 407.71251569383327 384.99999767650263 407.8062656964342C389.16666445876615 407.9000156990351 390.8333311716716 395.0562653427077 394.9999979539351 394.30626532190024C399.1666647361987 393.5562653010928 400.83333144910415 403.83126558615476 404.9999982313677 404.20626559655847C409.16666501363125 404.5812656069622 410.8333317265367 395.9812653683702 414.9999985088002 396.1062653718381C419.1666652910638 396.231265375306 420.8333320039692 405.6500156366128 424.99999878623277 404.8062656132044C429.16666556849634 403.96251558979606 430.83333228140174 391.40001524127143 434.9999990636653 392.0562652594779C439.1666658459289 392.7125152776845 440.8333325588343 407.518765688458 444.9999993410978 407.9562657005957C449.1666661233614 408.39376571273334 452.9166662273986 397.03126539750065 454.99999961853035 394.15626531773876 " transform="rotate(15, 400, 400)"></path><path d="M355.9999964904785 404.56501327347814C357.66666320338396 402.6400132200724 360.6666632866137 396.2750130434866 363.99999671242455 395.32501301713046C367.3333301382354 394.3750129907744 368.66666350855974 400.05501314835607 371.9999969343706 400.0050131469689C375.33333036018144 399.95501314558174 376.6666637305058 393.78501297440584 379.9999971563166 395.0850130104721C383.3333305821275 396.3850130465383 384.6666639524518 406.17001331800606 387.9999973782626 406.2450133200868C391.3333308040735 406.32001332216754 392.66666417439785 396.0450130371056 395.99999760020864 395.44501302045967C399.33333102601955 394.84501300381373 400.6666643963439 403.06501323186325 403.9999978221547 403.3650132401862C407.33333124796553 403.6650132485092 408.6666646182899 396.78501305763564 411.9999980441007 396.88501306040996C415.33333146991157 396.9850130631843 416.6666648402359 404.5200132722297 419.99999826604676 403.845013253503C423.3333316918576 403.1700132347763 424.66666506218195 393.1200129559566 427.9999984879928 393.6450129705218C431.33333191380365 394.170012985087 432.666665284128 406.0150133137058 435.99999870993884 406.365013323416C439.33333213574963 406.71501333312614 442.3333322189794 397.62501308093994 443.9999989318849 395.32501301713046 " transform="rotate(12, 400, 400)"></path><path d="M366.9999964141846 403.4237590014343C368.2499964488636 401.98000896137995 370.499996511286 397.2062588289406 372.9999965806441 396.4937588091735C375.49999665000223 395.7812587894065 376.49999667774546 400.04125890759275 378.99999674710364 400.0037589065524C381.49999681646176 399.966258905512 382.49999684420504 395.33875877713007 384.9999969135631 396.31375880417977C387.4999969829213 397.2887588312294 388.4999970106645 404.6275090348302 390.9999970800227 404.68375903639077C393.4999971493808 404.7400090379513 394.49999717712404 397.0337588241549 396.99999724648217 396.5837588116704C399.49999731584035 396.13375879918596 400.4999973435836 402.2987589702231 402.9999974129417 402.52375897646533C405.4999974822998 402.7487589827076 406.4999975100431 397.5887588395524 408.9999975794012 397.6637588416331C411.49999764875935 397.73875884371387 412.49999767650263 403.39000900049797 414.99999774586075 402.8837589864529C417.4999978152189 402.3775089724079 418.49999784296216 394.8400087632931 420.9999979123203 395.23375877421705C423.4999979816784 395.62750878514095 424.4999980094217 404.51125903160505 426.9999980787798 404.77375903888765C429.49999814813793 405.0362590461703 431.74999821056025 398.21875885703065 432.99999824523934 396.4937588091735 " transform="rotate(9, 400, 400)"></path><path d="M378.0000001525879 402.2825066367391C378.8333335090406 401.32000661003616 380.3333335506555 398.13750652174326 382.0000002635609 397.66250650856523C383.66666697646633 397.1875064953872 384.3333336616285 400.027506574178 386.0000003745339 400.0025065734844C387.66666708743935 399.97750657279084 388.3333337726015 396.8925064872029 390.0000004855069 397.542506505236C391.66666719841237 398.1925065232692 392.33333388357454 403.085006659003 394.00000059647994 403.1225066600434C395.6666673093854 403.1600066610838 396.33333399454756 398.0225065185528 398.00000070745295 397.72250651022983C399.6666674203584 397.42250650190687 400.3333341055206 401.53250661593165 402.000000818426 401.68250662009314C403.6666675313314 401.8325066242546 404.33333421649354 398.3925065288178 406.000000929399 398.442506530205C407.66666764230445 398.49250653159214 408.33333432746656 402.26000663611484 410.000001040372 401.9225066267515C411.66666775327747 401.58500661738816 412.3333344384396 396.5600064779783 414.00000115134503 396.8225064852609C415.6666678642505 397.0850064925435 416.3333345494126 403.0075066568529 418.00000126231805 403.182506661708C419.66666797522345 403.35750666656304 421.16666801683834 398.81250654047 422.00000137329107 397.66250650856523 " transform="rotate(6, 400, 400)"></path><path d="M389.00000007629393 401.1412523646952C389.4166667545203 400.6600023513438 390.1666667753277 399.0687523071973 391.00000013178044 398.8312523006083C391.83333348823317 398.5937522940193 392.1666668308143 400.0137523334147 393.00000018726695 400.0012523330679C393.8333335437197 399.9887523327211 394.16666688630073 398.44625228992714 395.00000024275346 398.7712522989437C395.8333335992062 399.09625230796024 396.1666669417873 401.5425023758272 397.00000029823997 401.5612523763474C397.8333336546927 401.5800023768676 398.16666699727375 399.01125230560206 399.0000003537265 398.8612523014406C399.8333337101792 398.7112522972791 400.16666705276026 400.7662523542915 401.000000409213 400.84125235637225C401.8333337656657 400.916252358453 402.16666710824677 399.19625231073456 403.0000004646995 399.22125231142815C403.8333338211522 399.2462523121217 404.1666671637333 401.13000236438313 405.000000520186 400.9612523597014C405.83333387663873 400.79250235501974 406.1666672192198 398.2800022853148 407.0000005756725 398.4112522889561C407.83333393212524 398.5425022925974 408.1666672747063 401.50375237475214 409.000000631159 401.59125237717967C409.8333339876117 401.6787523796072 410.5833340084192 399.40625231656065 411.00000068664554 398.8312523006083 " transform="rotate(3, 400, 400)"></path></g></svg>